<svg width="40" height="32" viewBox="0 0 40 32" fill="none" xmlns="http://www.w3.org/2000/svg">
  <path opacity="0.15" fill-rule="evenodd" clip-rule="evenodd" d="M3 1C1.89543 1 1 1.89543 1 3V28C1 29.1046 1.89543 30 3 30H37C38.1046 30 39 29.1046 39 28V3C39 1.89543 38.1046 1 37 1H3ZM36 9H4V28H36V9Z" fill="url(#paint0_linear)"/>
  <path d="M37.6172 0.375H2.38281C1.06903 0.375 0 1.44403 0 2.75781V29.2422C0 30.556 1.06903 31.625 2.38281 31.625H37.6172C38.931 31.625 40 30.556 40 29.2422V2.75781C40 1.44403 38.931 0.375 37.6172 0.375ZM38.4375 29.2422C38.4375 29.6945 38.0695 30.0625 37.6172 30.0625H2.38281C1.93054 30.0625 1.5625 29.6945 1.5625 29.2422V2.75781C1.5625 2.30554 1.93054 1.9375 2.38281 1.9375H37.6172C38.0695 1.9375 38.4375 2.30554 38.4375 2.75781V29.2422Z" fill="url(#paint1_linear)"/>
  <path d="M14.9219 5.79156H35.0781C35.5096 5.79156 35.8594 5.44183 35.8594 5.01031C35.8594 4.5791 35.5096 4.22906 35.0781 4.22906H14.9219C14.4904 4.22906 14.1406 4.5791 14.1406 5.01031C14.1406 5.44183 14.4904 5.79156 14.9219 5.79156Z" fill="url(#paint2_linear)"/>
  <path d="M3.99231 5.3094C4.01184 5.3564 4.03595 5.40157 4.06403 5.44368C4.0921 5.48671 4.12506 5.52669 4.16107 5.56239C4.30634 5.70857 4.50775 5.79158 4.71313 5.79158C4.76471 5.79158 4.81567 5.7867 4.86633 5.77663C4.91638 5.76656 4.96552 5.7516 5.01251 5.73207C5.05951 5.71254 5.10468 5.68843 5.14679 5.66035C5.18982 5.63136 5.2298 5.5984 5.2655 5.5627C5.30243 5.52669 5.33447 5.48671 5.36316 5.44398C5.39154 5.40157 5.41565 5.3564 5.43518 5.3094C5.45471 5.2618 5.46967 5.21266 5.47974 5.16322C5.48981 5.11256 5.49438 5.06099 5.49438 5.01033C5.49438 4.95937 5.48981 4.90779 5.47974 4.85805C5.46967 4.808 5.45471 4.75856 5.43518 4.71187C5.41565 4.66426 5.39154 4.61879 5.36316 4.57668C5.33447 4.53365 5.30243 4.49397 5.2655 4.45796C5.2298 4.42195 5.18982 4.3893 5.14679 4.36092C5.10468 4.33284 5.05951 4.30873 5.01251 4.2892C4.96552 4.26967 4.91638 4.25471 4.86633 4.24464C4.76563 4.2242 4.66187 4.2242 4.56085 4.24464C4.5108 4.25471 4.46167 4.26967 4.41498 4.2892C4.36707 4.30873 4.3219 4.33284 4.27979 4.36092C4.23676 4.3893 4.19678 4.42195 4.16107 4.45796C4.12506 4.49397 4.0921 4.53365 4.06403 4.57668C4.03595 4.61879 4.01184 4.66426 3.99231 4.71187C3.97278 4.75856 3.95782 4.808 3.94775 4.85805C3.93738 4.90779 3.93188 4.95937 3.93188 5.01033C3.93188 5.06099 3.93738 5.11256 3.94775 5.16322C3.95782 5.21266 3.97278 5.2618 3.99231 5.3094Z" fill="url(#paint3_linear)"/>
  <path d="M7.11731 5.3094C7.13684 5.3564 7.16095 5.40157 7.18903 5.44368C7.2171 5.48671 7.25006 5.52669 7.28607 5.56239C7.43134 5.70857 7.63275 5.79158 7.83813 5.79158C7.88971 5.79158 7.94067 5.7867 7.99133 5.77663C8.04138 5.76656 8.09052 5.7516 8.13751 5.73207C8.18451 5.71254 8.22968 5.68843 8.27179 5.66035C8.31482 5.63136 8.3548 5.5984 8.39142 5.5627C8.42743 5.52669 8.45947 5.48671 8.48816 5.44398C8.51654 5.40157 8.54065 5.3564 8.56018 5.3094C8.57971 5.2618 8.59467 5.21266 8.60474 5.16322C8.61481 5.11256 8.61938 5.06099 8.61938 5.01033C8.61938 4.95937 8.61481 4.90779 8.60474 4.85805C8.59467 4.808 8.57971 4.75856 8.56018 4.71187C8.54065 4.66426 8.51654 4.61879 8.48816 4.57668C8.45947 4.53365 8.42743 4.49397 8.39142 4.45796C8.3548 4.42195 8.31482 4.3893 8.27179 4.36092C8.22968 4.33284 8.18451 4.30873 8.13751 4.2892C8.09052 4.26967 8.04138 4.25471 7.99133 4.24464C7.89063 4.2242 7.78687 4.2242 7.68585 4.24464C7.6358 4.25471 7.58667 4.26967 7.53998 4.2892C7.49207 4.30873 7.4469 4.33284 7.40479 4.36092C7.36176 4.3893 7.32178 4.42195 7.28607 4.45796C7.25006 4.49397 7.2171 4.53365 7.18903 4.57668C7.16095 4.61879 7.13684 4.66426 7.11731 4.71187C7.09778 4.75856 7.08282 4.808 7.07275 4.85805C7.06238 4.90779 7.05688 4.95937 7.05688 5.01033C7.05688 5.06099 7.06238 5.11256 7.07275 5.16322C7.08282 5.21266 7.09778 5.2618 7.11731 5.3094Z" fill="url(#paint4_linear)"/>
  <path d="M10.2423 5.3094C10.2618 5.3564 10.2859 5.40157 10.3139 5.44368C10.342 5.48671 10.375 5.52669 10.411 5.56239C10.5563 5.70857 10.7577 5.79158 10.9631 5.79158C11.0147 5.79158 11.0657 5.7867 11.1163 5.77663C11.1664 5.76656 11.2155 5.7516 11.2625 5.73207C11.3095 5.71254 11.3547 5.68843 11.3968 5.66035C11.4398 5.63136 11.4798 5.5984 11.5164 5.5627C11.5524 5.52669 11.5845 5.48671 11.6132 5.44398C11.6415 5.40157 11.6656 5.3564 11.6852 5.3094C11.7047 5.2618 11.7197 5.21266 11.7297 5.16322C11.7398 5.11256 11.7444 5.06099 11.7444 5.01033C11.7444 4.95937 11.7398 4.90779 11.7297 4.85805C11.7197 4.808 11.7047 4.75856 11.6852 4.71187C11.6656 4.66426 11.6415 4.61879 11.6132 4.57668C11.5845 4.53365 11.5524 4.49397 11.5164 4.45796C11.4798 4.42195 11.4398 4.3893 11.3968 4.36092C11.3547 4.33284 11.3095 4.30873 11.2625 4.2892C11.2155 4.26967 11.1664 4.25471 11.1163 4.24464C11.0156 4.2242 10.9118 4.2242 10.8108 4.24464C10.7607 4.25471 10.7116 4.26967 10.6649 4.2892C10.617 4.30873 10.5718 4.33284 10.5297 4.36092C10.4867 4.3893 10.4467 4.42195 10.411 4.45796C10.375 4.49397 10.342 4.53365 10.3139 4.57668C10.2859 4.61879 10.2618 4.66426 10.2423 4.71187C10.2228 4.75856 10.2078 4.808 10.1977 4.85805C10.1873 4.90779 10.1818 4.95937 10.1818 5.01033C10.1818 5.06099 10.1873 5.11256 10.1977 5.16322C10.2078 5.21266 10.2228 5.2618 10.2423 5.3094Z" fill="url(#paint5_linear)"/>
  <defs>
    <linearGradient id="paint0_linear" x1="2.42308" y1="30" x2="29.5958" y2="-8.40244" gradientUnits="userSpaceOnUse">
      <stop offset="0.133333" stop-color="#17C4FF"/>
      <stop offset="1" stop-color="#5D00E4"/>
    </linearGradient>
    <linearGradient id="paint1_linear" x1="5.20709" y1="30" x2="31.6687" y2="-2.61968" gradientUnits="userSpaceOnUse">
      <stop stop-color="#17C4FF"/>
      <stop offset="1" stop-color="#5D00E4"/>
    </linearGradient>
    <linearGradient id="paint2_linear" x1="14.5663" y1="5.79156" x2="16.9448" y2="-8.36432" gradientUnits="userSpaceOnUse">
      <stop offset="0.133333" stop-color="#17C4FF"/>
      <stop offset="1" stop-color="#5D00E4"/>
    </linearGradient>
    <linearGradient id="paint3_linear" x1="3.93188" y1="5.79158" x2="7.4848" y2="0.81666" gradientUnits="userSpaceOnUse">
      <stop stop-color="#17C4FF"/>
      <stop offset="1" stop-color="#5D00E4"/>
    </linearGradient>
    <linearGradient id="paint4_linear" x1="7.05688" y1="5.79158" x2="10.6098" y2="0.81666" gradientUnits="userSpaceOnUse">
      <stop stop-color="#17C4FF"/>
      <stop offset="1" stop-color="#5D00E4"/>
    </linearGradient>
    <linearGradient id="paint5_linear" x1="10.1818" y1="5.79158" x2="13.7347" y2="0.81666" gradientUnits="userSpaceOnUse">
      <stop stop-color="#17C4FF"/>
      <stop offset="1" stop-color="#5D00E4"/>
    </linearGradient>
  </defs>
</svg>
